:SAMPLES-PER-SECOND 30
:FULLY-SPECIFIED
:DEGREES
1312
root  29.0148 36.7453 -1.84676 -22.6516 76.4728 -27.1071
RightUpLeg  -8.92942 -4.62591 4.3871
RightLeg  50.3683 -0.0792217 -0.450362
RightFoot  -11.0249 0.0273994 17.6422
RightToes  2.32829e-010 0 -3.6325e-017
Spine  11.5912 2.98151 10.1045
Spine1  18.5931 6.52377 -7.55209
HEad  -11.4266 -1.41789 -1.30346
LeftShoulder1  0.834341 1.12777 -29.0062
LeftArm  -7.11699 4.21661 -39.8118
LeftForeArm  23.5038 -47.4109 -10.4786
LeftHand  -0.308525 -0.607073 6.06963
RightShoulder  0.163386 -2.91528 22.8284
RightArm  -3.34762 10.053 43.0851
RightForeArm  16.211 58.7331 17.3357
RightHand  -0.764123 3.61339 -10.0701
LeftUpLeg  -36.9526 19.3223 -4.04524
LeftLeg  32.002 2.32713 1.92598
LeftFoot  -2.6575 -0.825253 11.0825
LeftToes  -3.54706e-010 1.16038e-010 5.28031e-012
1313
root  30.0789 36.5042 -1.65235 -20.0536 77.9451 -24.2001
RightUpLeg  -17.109 -3.02232 2.76675
RightLeg  63.936 0.743299 1.08879
RightFoot  3.82368 -1.31996 9.93592
RightToes  2.32829e-010 0 -3.6325e-017
Spine  13.8391 2.52911 8.13046
Spine1  18.6278 6.09732 -7.63644
HEad  -13.1219 -1.56886 -1.72972
LeftShoulder1  1.00266 0.633267 -28.8501
LeftArm  -6.96995 1.35199 -40.5989
LeftForeArm  23.146 -46.0707 -9.98368
LeftHand  -0.254623 -0.447441 5.15547
RightShoulder  0.237625 -2.64252 22.1239
RightArm  -3.36416 9.57732 44.8411
RightForeArm  15.7779 58.0368 16.8634
RightHand  -0.803683 4.60077 -9.60087
LeftUpLeg  -36.6965 19.1864 -5.09158
LeftLeg  35.5553 1.97061 1.91334
LeftFoot  -5.65308 -0.570607 12.0611
LeftToes  -3.54706e-010 1.16038e-010 5.28031e-012
1314
root  31.014 36.2191 -1.44721 -15.3962 80.1178 -19.3252
RightUpLeg  -24.3232 -0.877486 0.879357
RightLeg  72.6381 1.27523 3.70214
RightFoot  8.37942 -0.75012 4.46957
RightToes  2.32829e-010 0 -3.6325e-017
Spine  16.4886 1.82978 6.24045
Spine1  18.7267 5.74188 -8.73331
HEad  -15.5782 -2.01793 -1.47933
LeftShoulder1  1.14441 0.168914 -28.1996
LeftArm  -6.62221 -2.84863 -41.894
LeftForeArm  23.1169 -44.58 -9.42933
LeftHand  -0.263582 -0.764409 5.08159
RightShoulder  0.152312 -2.96563 23.3478
RightArm  -2.57023 11.5002 45.0647
RightForeArm  13.6776 56.6383 16.088
RightHand  -0.85665 5.07118 -9.77734
LeftUpLeg  -36.4817 18.5308 -6.5345
LeftLeg  38.6961 1.44358 1.66062
LeftFoot  -8.41103 -0.248859 11.6494
LeftToes  -3.54706e-010 1.16038e-010 5.28031e-012
1315
root  32.0415 36.1621 -1.20506 -10.639 81.4054 -14.9061
RightUpLeg  -30.9277 2.34305 -0.813084
RightLeg  75.364 1.84069 6.87038
RightFoot  6.72074 -0.759675 5.08982
RightToes  2.32829e-010 0 -3.6325e-017
Spine  18.4834 1.55162 4.41035
Spine1  19.0651 5.45733 -8.51274
HEad  -18.7112 -2.30067 -1.45247
LeftShoulder1  1.25816 -0.157469 -28.2598
LeftArm  -6.27962 -7.21637 -43.1881
LeftForeArm  23.003 -43.8712 -9.19051
LeftHand  -0.253781 -0.742443 4.91209
RightShoulder  0.222162 -2.71991 23.0428
RightArm  -2.11806 13.5562 45.5987
RightForeArm  12.05 55.0646 15.2212
RightHand  -0.930133 5.5737 -10.1401
LeftUpLeg  -35.7707 18.6686 -7.28761
LeftLeg  40.2807 0.639944 1.02474
LeftFoot  -10.8078 0.0134057 11.1032
LeftToes  -3.54706e-010 1.16038e-010 5.28031e-012
1316
root  33.1107 36.2601 -1.02242 -6.09424 82.1632 -10.9716
RightUpLeg  -36.5519 5.35949 -2.48087
RightLeg  72.5367 2.01766 6.39715
RightFoot  4.85749 -0.772214 5.62271
RightToes  2.32829e-010 0 -3.6325e-017
Spine  20.4402 1.20634 3.46872
Spine1  18.8699 5.54706 -8.879
HEad  -21.2494 -2.30005 -2.13814
LeftShoulder1  1.4424 -0.74826 -27.8406
LeftArm  -5.56072 -11.8561 -44.3163
LeftForeArm  22.4297 -42.6698 -8.81562
LeftHand  -0.246648 -0.802677 4.72674
RightShoulder  0.328514 -2.33009 22.2201
RightArm  -2.29747 15.4839 46.4012
RightForeArm  11.3701 53.366 14.2894
RightHand  -0.952028 6.40651 -9.66999
LeftUpLeg  -34.5067 18.3833 -7.57033
LeftLeg  40.5789 0.341643 0.761182
LeftFoot  -12.7751 0.210542 10.6248
LeftToes  -3.54706e-010 1.16038e-010 5.28031e-012
1317
root  34.2094 36.4547 -0.878208 -6.98389 83.1744 -12.7162
RightUpLeg  -40.5829 7.23251 -3.4459
RightLeg  64.7277 1.6054 3.21681
RightFoot  3.02014 -0.487963 4.05813
RightToes  2.32829e-010 0 -3.6325e-017
Spine  22.1001 0.523961 3.62517
Spine1  18.3849 5.3934 -8.90404
HEad  -23.332 -2.51601 -2.35619
LeftShoulder1  1.60847 -1.3754 -26.8251
LeftArm  -5.82322 -15.6803 -46.1072
LeftForeArm  22.6857 -41.9 -8.54526
LeftHand  -0.29612 -0.778181 5.68522
RightShoulder  0.374797 -2.13954 21.6163
RightArm  -1.76951 18.283 46.8893
RightForeArm  9.19417 51.0631 13.2387
RightHand  -0.941025 6.78554 -9.28992
LeftUpLeg  -33.1234 18.3218 -7.27763
LeftLeg  40.1615 -0.351048 0.131173
LeftFoot  -14.3966 0.363364 10.3193
LeftToes  -3.54706e-010 1.16038e-010 5.28031e-012
1318
root  35.3564 36.6585 -0.753762 -10.089 83.8539 -16.8774
RightUpLeg  -42.6619 8.94677 -4.20875
RightLeg  52.686 0.0678382 -0.196746
RightFoot  0.613955 -0.450114 4.33335
RightToes  2.32829e-010 0 -3.6325e-017
Spine  23.4496 0.00621106 3.75156
Spine1  17.8552 5.16137 -8.18892
HEad  -25.7063 -2.84534 -2.33132
LeftShoulder1  1.64447 -1.56354 -26.3143
LeftArm  -5.70663 -19.7782 -47.4039
LeftForeArm  22.843 -40.8805 -8.20701
LeftHand  -0.259762 -0.784202 4.99828
RightShoulder  0.457959 -1.79272 20.7001
RightArm  -1.73788 20.9247 47.0917
RightForeArm  8.20664 49.4262 12.5199
RightHand  -0.945145 7.35273 -8.9347
LeftUpLeg  -31.7787 18.9951 -6.74927
LeftLeg  39.5315 -1.50755 -0.894271
LeftFoot  -16.024 0.51217 10.152
LeftToes  -3.54706e-010 1.16038e-010 5.28031e-012
1319
root  36.5528 36.7841 -0.659843 -11.819 84.3658 -19.9816
RightUpLeg  -43.1806 9.4545 -4.79724
RightLeg  37.6141 -2.25261 -2.15121
RightFoot  -0.201892 -0.454497 4.62317
RightToes  2.32829e-010 0 -3.6325e-017
Spine  24.4588 -0.577735 4.48769
Spine1  17.0513 5.31684 -8.40172
HEad  -27.0828 -3.12111 -2.61992
LeftShoulder1  1.74681 -2.01998 -25.4484
LeftArm  -5.39262 -23.5951 -48.5395
LeftForeArm  22.7818 -40.0011 -7.93822
LeftHand  -0.284686 -1.11061 5.22287
RightShoulder  0.490016 -1.63128 20.0187
RightArm  -2.5193 22.8964 46.8505
RightForeArm  8.25406 48.7886 12.2262
RightHand  -0.932008 7.06443 -9.01412
LeftUpLeg  -30.9515 18.9944 -6.3829
LeftLeg  39.3492 -2.09833 -1.40492
LeftFoot  -17.5364 0.633804 9.72468
LeftToes  -3.54706e-010 1.16038e-010 5.28031e-012
1320
root  37.8171 36.8327 -0.5508 -16.4399 84.5397 -25.6191
RightUpLeg  -41.513 8.53889 -3.96277
RightLeg  20.7789 -2.99776 -1.51603
RightFoot  -0.0980622 -0.617376 6.31788
RightToes  2.32829e-010 0 -3.6325e-017
Spine  25.4302 -0.81284 5.32066
Spine1  16.8236 5.48061 -7.83526
HEad  -28.4914 -3.64299 -2.65486
LeftShoulder1  1.86391 -2.55848 -24.5509
LeftArm  -5.4921 -27.0574 -49.688
LeftForeArm  22.2408 -39.107 -7.7016
LeftHand  -0.302327 -0.857616 5.73534
RightShoulder  0.531447 -1.42276 19.3215
RightArm  -3.52613 24.7967 46.3661
RightForeArm  7.3923 48.3532 12.0951
RightHand  -0.988897 6.78255 -9.7375
LeftUpLeg  -29.8072 19.1537 -5.55091
LeftLeg  39.536 -2.32041 -1.61711
LeftFoot  -19.1243 0.773808 9.65682
LeftToes  -3.54706e-010 1.16038e-010 5.28031e-012
1321
root  39.1389 36.6861 -0.350726 -18.1633 84.9885 -27.3955
RightUpLeg  -38.5537 6.41584 -1.93135
RightLeg  6.77944 -1.96485 -0.717815
RightFoot  -1.47515 -0.85289 9.69587
RightToes  2.32829e-010 0 -3.6325e-017
Spine  26.9214 -0.719896 5.4183
Spine1  16.7019 5.51788 -6.80026
HEad  -29.5666 -4.54238 -2.78958
LeftShoulder1  2.03436 -3.33573 -23.4837
LeftArm  -6.57503 -29.7967 -50.7774
LeftForeArm  22.4953 -38.3857 -7.47358
LeftHand  -0.281336 -0.740336 5.44807
RightShoulder  0.58166 -1.14083 18.2417
RightArm  -4.75594 26.0762 45.8681
RightForeArm  5.85817 47.9506 12.0313
RightHand  -1.03534 7.38797 -9.71978
LeftUpLeg  -28.022 19.8169 -4.73271
LeftLeg  40.8808 -2.84318 -2.19394
LeftFoot  -21.2593 0.955071 9.50726
LeftToes  -3.54706e-010 1.16038e-010 5.28031e-012
1322
root  40.3854 36.3429 -0.113921 -13.1379 85.5227 -22.1689
RightUpLeg  -37.0736 4.38871 0.20694
RightLeg  0.734632 -1.42097 -1.25714
RightFoot  -1.05824 -1.02676 11.2666
RightToes  2.32829e-010 0 -3.6325e-017
Spine  28.4641 -0.284265 4.67842
Spine1  17.2419 5.52001 -5.51732
HEad  -31.9847 -5.59719 -2.5585
LeftShoulder1  2.08099 -3.77818 -22.2724
LeftArm  -7.28626 -33.2893 -51.6861
LeftForeArm  21.6958 -37.0918 -7.15236
LeftHand  -0.32011 -0.730117 6.17718
RightShoulder  0.578134 -1.0878 17.4903
RightArm  -5.74905 28.5701 44.8411
RightForeArm  5.04531 46.9078 11.6408
RightHand  -0.863032 7.01327 -8.40742
LeftUpLeg  -27.0075 20.4658 -4.49009
LeftLeg  43.873 -2.80268 -2.42082
LeftFoot  -23.2428 1.08706 9.10979
LeftToes  -3.54706e-010 1.16038e-010 5.28031e-012
1323
root  41.417 35.9692 0.078582 -0.637207 86.2759 -9.67065
RightUpLeg  -38.5672 4.34698 -0.0374704
RightLeg  3.56973 -1.66644 -1.353
RightFoot  3.57148 -0.838664 6.97975
RightToes  2.32829e-010 0 -3.6325e-017
Spine  30.9181 0.0186076 4.87833
Spine1  17.5843 5.27059 -5.07157
HEad  -35.6694 -6.95917 -1.0462
LeftShoulder1  2.10143 -4.33974 -20.359
LeftArm  -8.6702 -36.6438 -52.8577
LeftForeArm  21.2396 -35.5311 -6.74863
LeftHand  -0.36978 -1.60191 6.27983
RightShoulder  0.599984 -0.834195 15.9074
RightArm  -7.79483 31.0315 44.7163
RightForeArm  3.56545 45.0991 11.0077
RightHand  -0.870717 7.13652 -8.37685
LeftUpLeg  -28.1389 20.7837 -4.89649
LeftLeg  49.5365 -2.65336 -2.87296
LeftFoot  -22.5646 0.830674 6.99498
LeftToes  -3.54706e-010 1.16038e-010 5.28031e-012
